<mxfile host="app.diagrams.net" agent="Mozilla/5.0 (Windows NT 10.0; Win64; x64) AppleWebKit/537.36 (KHTML, like Gecko) Chrome/138.0.0.0 Safari/537.36 Edg/138.0.0.0" version="28.0.7">
  <diagram name="Page-1" id="XtyZFD4BaBV9jrSh4CB2">
    <mxGraphModel dx="776" dy="639" grid="1" gridSize="10" guides="1" tooltips="1" connect="1" arrows="1" fold="1" page="1" pageScale="1" pageWidth="1100" pageHeight="850" math="0" shadow="0">
      <root>
        <mxCell id="0" />
        <mxCell id="1" parent="0" />
        <mxCell id="f72CICnA4HZZNePYYsJ0-1" value="" style="rounded=1;whiteSpace=wrap;html=1;" vertex="1" parent="1">
          <mxGeometry x="160" y="254" width="670" height="249" as="geometry" />
        </mxCell>
        <mxCell id="4y9Fi3Vy4SqghmAU4niY-1" value="" style="shape=umlActor;verticalLabelPosition=bottom;verticalAlign=top;html=1;outlineConnect=0;" parent="1" vertex="1">
          <mxGeometry x="180" y="301" width="20" height="40" as="geometry" />
        </mxCell>
        <mxCell id="4y9Fi3Vy4SqghmAU4niY-13" style="edgeStyle=orthogonalEdgeStyle;rounded=0;orthogonalLoop=1;jettySize=auto;html=1;" parent="1" edge="1">
          <mxGeometry relative="1" as="geometry">
            <mxPoint x="394" y="320" as="targetPoint" />
            <mxPoint x="252" y="320" as="sourcePoint" />
          </mxGeometry>
        </mxCell>
        <mxCell id="4y9Fi3Vy4SqghmAU4niY-8" value="" style="shape=mxgraph.cisco.computers_and_peripherals.web_browser;html=1;pointerEvents=1;dashed=0;fillColor=#036897;strokeColor=#ffffff;strokeWidth=2;verticalLabelPosition=bottom;verticalAlign=top;align=center;outlineConnect=0;" parent="1" vertex="1">
          <mxGeometry x="210" y="304" width="38" height="40" as="geometry" />
        </mxCell>
        <mxCell id="4y9Fi3Vy4SqghmAU4niY-10" value="APIM" style="text;html=1;align=center;verticalAlign=middle;whiteSpace=wrap;rounded=0;" parent="1" vertex="1">
          <mxGeometry x="393" y="349" width="60" height="30" as="geometry" />
        </mxCell>
        <mxCell id="4y9Fi3Vy4SqghmAU4niY-11" value="" style="image;aspect=fixed;html=1;points=[];align=center;fontSize=12;image=img/lib/azure2/ai_machine_learning/Azure_OpenAI.svg;" parent="1" vertex="1">
          <mxGeometry x="768.48" y="302" width="39" height="39" as="geometry" />
        </mxCell>
        <mxCell id="4y9Fi3Vy4SqghmAU4niY-12" value="LLM" style="text;html=1;align=center;verticalAlign=middle;whiteSpace=wrap;rounded=0;" parent="1" vertex="1">
          <mxGeometry x="740.48" y="349" width="93" height="30" as="geometry" />
        </mxCell>
        <mxCell id="4y9Fi3Vy4SqghmAU4niY-15" value="Prompt" style="text;html=1;align=center;verticalAlign=middle;whiteSpace=wrap;rounded=0;fontSize=10;" parent="1" vertex="1">
          <mxGeometry x="294" y="298" width="50" height="23" as="geometry" />
        </mxCell>
        <mxCell id="4y9Fi3Vy4SqghmAU4niY-19" style="edgeStyle=orthogonalEdgeStyle;rounded=0;orthogonalLoop=1;jettySize=auto;html=1;" parent="1" edge="1">
          <mxGeometry relative="1" as="geometry">
            <mxPoint x="250" y="327" as="targetPoint" />
            <mxPoint x="390" y="327" as="sourcePoint" />
          </mxGeometry>
        </mxCell>
        <mxCell id="4y9Fi3Vy4SqghmAU4niY-20" value="Ack" style="text;html=1;align=center;verticalAlign=middle;whiteSpace=wrap;rounded=0;fontSize=10;" parent="1" vertex="1">
          <mxGeometry x="294" y="326" width="50" height="23" as="geometry" />
        </mxCell>
        <mxCell id="4y9Fi3Vy4SqghmAU4niY-34" style="edgeStyle=orthogonalEdgeStyle;rounded=0;orthogonalLoop=1;jettySize=auto;html=1;" parent="1" edge="1">
          <mxGeometry relative="1" as="geometry">
            <mxPoint x="450" y="320" as="sourcePoint" />
            <mxPoint x="515" y="320" as="targetPoint" />
          </mxGeometry>
        </mxCell>
        <mxCell id="4y9Fi3Vy4SqghmAU4niY-35" style="edgeStyle=orthogonalEdgeStyle;rounded=0;orthogonalLoop=1;jettySize=auto;html=1;" parent="1" edge="1">
          <mxGeometry relative="1" as="geometry">
            <mxPoint x="510" y="327" as="sourcePoint" />
            <mxPoint x="450" y="327" as="targetPoint" />
          </mxGeometry>
        </mxCell>
        <mxCell id="4y9Fi3Vy4SqghmAU4niY-36" value="API" style="text;html=1;align=center;verticalAlign=middle;whiteSpace=wrap;rounded=0;" parent="1" vertex="1">
          <mxGeometry x="650" y="349" width="60" height="30" as="geometry" />
        </mxCell>
        <mxCell id="4y9Fi3Vy4SqghmAU4niY-37" value="Chat App" style="text;html=1;align=center;verticalAlign=middle;whiteSpace=wrap;rounded=0;" parent="1" vertex="1">
          <mxGeometry x="185" y="349" width="60" height="30" as="geometry" />
        </mxCell>
        <mxCell id="4y9Fi3Vy4SqghmAU4niY-38" value="" style="image;aspect=fixed;html=1;points=[];align=center;fontSize=12;image=img/lib/azure2/app_services/API_Management_Services.svg;" parent="1" vertex="1">
          <mxGeometry x="399" y="302" width="46.59" height="43" as="geometry" />
        </mxCell>
        <mxCell id="4y9Fi3Vy4SqghmAU4niY-39" style="edgeStyle=orthogonalEdgeStyle;rounded=0;orthogonalLoop=1;jettySize=auto;html=1;" parent="1" edge="1">
          <mxGeometry relative="1" as="geometry">
            <mxPoint x="696.48" y="319" as="sourcePoint" />
            <mxPoint x="761.48" y="319" as="targetPoint" />
          </mxGeometry>
        </mxCell>
        <mxCell id="4y9Fi3Vy4SqghmAU4niY-40" style="edgeStyle=orthogonalEdgeStyle;rounded=0;orthogonalLoop=1;jettySize=auto;html=1;" parent="1" edge="1">
          <mxGeometry relative="1" as="geometry">
            <mxPoint x="756.48" y="326" as="sourcePoint" />
            <mxPoint x="696.48" y="326" as="targetPoint" />
          </mxGeometry>
        </mxCell>
        <mxCell id="f72CICnA4HZZNePYYsJ0-2" value="" style="image;aspect=fixed;html=1;points=[];align=center;fontSize=12;image=img/lib/azure2/compute/Function_Apps.svg;" vertex="1" parent="1">
          <mxGeometry x="642.56" y="302" width="45.33" height="40" as="geometry" />
        </mxCell>
        <mxCell id="f72CICnA4HZZNePYYsJ0-3" value="" style="image;aspect=fixed;html=1;points=[];align=center;fontSize=12;image=img/lib/azure2/integration/Service_Bus.svg;" vertex="1" parent="1">
          <mxGeometry x="520" y="304" width="45.33" height="40" as="geometry" />
        </mxCell>
        <mxCell id="f72CICnA4HZZNePYYsJ0-4" value="Service Bus" style="text;html=1;align=center;verticalAlign=middle;whiteSpace=wrap;rounded=0;" vertex="1" parent="1">
          <mxGeometry x="500" y="349" width="80" height="30" as="geometry" />
        </mxCell>
        <mxCell id="f72CICnA4HZZNePYYsJ0-6" value="" style="endArrow=none;dashed=1;html=1;rounded=0;" edge="1" parent="1">
          <mxGeometry width="50" height="50" relative="1" as="geometry">
            <mxPoint x="600" y="390" as="sourcePoint" />
            <mxPoint x="600" y="270" as="targetPoint" />
          </mxGeometry>
        </mxCell>
        <mxCell id="f72CICnA4HZZNePYYsJ0-7" value="&lt;i&gt;decoupled&lt;/i&gt;" style="text;html=1;align=center;verticalAlign=middle;whiteSpace=wrap;rounded=0;rotation=-45;fontColor=#009900;" vertex="1" parent="1">
          <mxGeometry x="570" y="319" width="60" height="30" as="geometry" />
        </mxCell>
        <mxCell id="f72CICnA4HZZNePYYsJ0-9" value="" style="verticalLabelPosition=bottom;html=1;verticalAlign=top;align=center;strokeColor=none;fillColor=#00BEF2;shape=mxgraph.azure.queue_generic;pointerEvents=1;" vertex="1" parent="1">
          <mxGeometry x="540" y="292" width="50" height="15" as="geometry" />
        </mxCell>
        <mxCell id="f72CICnA4HZZNePYYsJ0-13" value="" style="image;aspect=fixed;html=1;points=[];align=center;fontSize=12;image=img/lib/azure2/web/SignalR.svg;" vertex="1" parent="1">
          <mxGeometry x="402.295" y="400" width="40" height="40" as="geometry" />
        </mxCell>
        <mxCell id="f72CICnA4HZZNePYYsJ0-14" style="edgeStyle=orthogonalEdgeStyle;rounded=0;orthogonalLoop=1;jettySize=auto;html=1;entryX=-0.008;entryY=0.653;entryDx=0;entryDy=0;entryPerimeter=0;" edge="1" parent="1" target="f72CICnA4HZZNePYYsJ0-13">
          <mxGeometry relative="1" as="geometry">
            <mxPoint x="248" y="341" as="sourcePoint" />
            <mxPoint x="402.2550000000001" y="438.24" as="targetPoint" />
            <Array as="points">
              <mxPoint x="250" y="341" />
              <mxPoint x="250" y="426" />
              <mxPoint x="402" y="426" />
            </Array>
          </mxGeometry>
        </mxCell>
        <mxCell id="f72CICnA4HZZNePYYsJ0-15" value="Azure SignalR" style="text;html=1;align=center;verticalAlign=middle;whiteSpace=wrap;rounded=0;" vertex="1" parent="1">
          <mxGeometry x="392.29" y="450" width="60" height="30" as="geometry" />
        </mxCell>
        <mxCell id="f72CICnA4HZZNePYYsJ0-16" style="edgeStyle=orthogonalEdgeStyle;rounded=0;orthogonalLoop=1;jettySize=auto;html=1;entryX=1.049;entryY=0.52;entryDx=0;entryDy=0;entryPerimeter=0;" edge="1" parent="1" source="f72CICnA4HZZNePYYsJ0-2" target="f72CICnA4HZZNePYYsJ0-9">
          <mxGeometry relative="1" as="geometry">
            <Array as="points">
              <mxPoint x="630" y="322" />
              <mxPoint x="630" y="300" />
            </Array>
          </mxGeometry>
        </mxCell>
        <mxCell id="f72CICnA4HZZNePYYsJ0-17" value="Connect" style="text;html=1;align=center;verticalAlign=middle;whiteSpace=wrap;rounded=0;fontSize=10;" vertex="1" parent="1">
          <mxGeometry x="294" y="425" width="50" height="23" as="geometry" />
        </mxCell>
        <mxCell id="f72CICnA4HZZNePYYsJ0-18" style="edgeStyle=orthogonalEdgeStyle;rounded=0;orthogonalLoop=1;jettySize=auto;html=1;" edge="1" parent="1">
          <mxGeometry relative="1" as="geometry">
            <mxPoint x="400" y="420" as="sourcePoint" />
            <mxPoint x="250" y="337" as="targetPoint" />
            <Array as="points">
              <mxPoint x="270" y="420" />
              <mxPoint x="270" y="337" />
            </Array>
          </mxGeometry>
        </mxCell>
        <mxCell id="f72CICnA4HZZNePYYsJ0-19" value="Response" style="text;html=1;align=center;verticalAlign=middle;whiteSpace=wrap;rounded=0;fontSize=10;" vertex="1" parent="1">
          <mxGeometry x="294" y="400" width="50" height="23" as="geometry" />
        </mxCell>
        <mxCell id="f72CICnA4HZZNePYYsJ0-20" style="edgeStyle=orthogonalEdgeStyle;rounded=0;orthogonalLoop=1;jettySize=auto;html=1;entryX=1.022;entryY=0.558;entryDx=0;entryDy=0;entryPerimeter=0;exitX=0.489;exitY=1.023;exitDx=0;exitDy=0;exitPerimeter=0;" edge="1" parent="1" source="f72CICnA4HZZNePYYsJ0-2" target="f72CICnA4HZZNePYYsJ0-13">
          <mxGeometry relative="1" as="geometry" />
        </mxCell>
        <mxCell id="f72CICnA4HZZNePYYsJ0-21" value="Response" style="text;html=1;align=center;verticalAlign=middle;whiteSpace=wrap;rounded=0;fontSize=10;" vertex="1" parent="1">
          <mxGeometry x="530" y="400" width="50" height="23" as="geometry" />
        </mxCell>
        <mxCell id="f72CICnA4HZZNePYYsJ0-22" value="Message" style="text;html=1;align=center;verticalAlign=middle;whiteSpace=wrap;rounded=0;fontSize=10;" vertex="1" parent="1">
          <mxGeometry x="453" y="298" width="50" height="23" as="geometry" />
        </mxCell>
        <mxCell id="f72CICnA4HZZNePYYsJ0-23" value="Ack" style="text;html=1;align=center;verticalAlign=middle;whiteSpace=wrap;rounded=0;fontSize=10;" vertex="1" parent="1">
          <mxGeometry x="454.28999999999996" y="326" width="50" height="23" as="geometry" />
        </mxCell>
      </root>
    </mxGraphModel>
  </diagram>
</mxfile>
